PathFileType	4	(X/Y/Z)	C:\Users\Basilio\Documents\Thesis Gigler\squatting_fais\c3dfiles\054\SJ_pre3\markers_experimental.trc
DataRate	CameraRate	NumFrames	NumMarkers	Units	OrigDataRate	OrigDataStartFrame	OrigNumFrames
200.000000	200.000000	4	61	mm	200.000000	1345	1794
Frame#	Time	FHD			LBHD			RBHD			C7			T10			CLAV			LSHO			LUUPA			LMUPA			LDUPA			LLEP			LMEP			LRAD			LUL			LRFIN			RSHO			RUPA1			RMUPA			RDUPA			RLEP			RMEP			RRAD			RUL			RUFIN			LASI			RASI			USACR			LSACR			RSACR			LTHI1			LTHI2			LTHI3			LTHI4			LLFC			LMFC			LTIB1			LTIB2			LTIB3			LTIB4			LLMAL			LMMAL			LHEE			LMT1			LMT2			LMT5			RTHI			RTHI2			RTHI3			RTHI4			RLFC			RMFC			RTIB1			RTIB2			RTIB3			RTIB4			RLMAL			RMMAL			RHEE			RMT1			RMT2			RMT5			
		X1	Y1	Z1	X2	Y2	Z2	X3	Y3	Z3	X4	Y4	Z4	X5	Y5	Z5	X6	Y6	Z6	X7	Y7	Z7	X8	Y8	Z8	X9	Y9	Z9	X10	Y10	Z10	X11	Y11	Z11	X12	Y12	Z12	X13	Y13	Z13	X14	Y14	Z14	X15	Y15	Z15	X16	Y16	Z16	X17	Y17	Z17	X18	Y18	Z18	X19	Y19	Z19	X20	Y20	Z20	X21	Y21	Z21	X22	Y22	Z22	X23	Y23	Z23	X24	Y24	Z24	X25	Y25	Z25	X26	Y26	Z26	X27	Y27	Z27	X28	Y28	Z28	X29	Y29	Z29	X30	Y30	Z30	X31	Y31	Z31	X32	Y32	Z32	X33	Y33	Z33	X34	Y34	Z34	X35	Y35	Z35	X36	Y36	Z36	X37	Y37	Z37	X38	Y38	Z38	X39	Y39	Z39	X40	Y40	Z40	X41	Y41	Z41	X42	Y42	Z42	X43	Y43	Z43	X44	Y44	Z44	X45	Y45	Z45	X46	Y46	Z46	X47	Y47	Z47	X48	Y48	Z48	X49	Y49	Z49	X50	Y50	Z50	X51	Y51	Z51	X52	Y52	Z52	X53	Y53	Z53	X54	Y54	Z54	X55	Y55	Z55	X56	Y56	Z56	X57	Y57	Z57	X58	Y58	Z58	X59	Y59	Z59	X60	Y60	Z60	X61	Y61	Z61	

1346	6.725000000000001	167.9739074707032	1173.600219726563	-872.011169433594	-6.803279399871828	1137.186401367188	-922.1760253906252	-5.383421897888184	1134.744873046875	-782.2759399414065	-69.21204376220705	1057.3701171875	-835.2532348632815	-351.2966308593751	874.459655761719	-849.5965576171877	-10.50578212738037	907.0539550781252	-852.7795410156252	-4.161330223083497	991.4466552734377	-1001.101745605469	-141.6685028076172	993.2298583984377	-1182.656005859375	-149.6063995361328	944.038024902344	-1194.3330078125	-189.5725402832032	970.532897949219	-1230.869018554688	-237.9140625000001	928.8906250000002	-1257.038696289063	-300.4235229492188	976.8453369140627	-1212.203857421875	-376.7817993164063	781.3843383789065	-1082.037475585938	-372.3703613281251	722.6638793945314	-1130.012329101563	-336.6638793945313	748.9085693359376	-1036.00146484375	19.50725936889649	962.153015136719	-691.8361206054689	-134.7793121337891	947.0412597656252	-509.4487304687501	-152.2285766601563	901.957702636719	-504.5781860351564	-191.9520111083985	932.1355590820315	-470.3197021484376	-238.3235015869141	910.622497558594	-455.2781677246095	-283.9472351074219	965.8416137695315	-504.9626770019532	-414.0608825683595	784.2903442382815	-630.5463867187501	-406.5777587890626	726.6821899414064	-576.8648681640626	-361.0243225097657	753.0675048828126	-658.1520996093751	-333.6625366210938	653.8246459960939	-973.7211914062502	-328.8981933593751	660.3234863281251	-714.5573120117189	-433.244354248047	811.8724365234377	-846.9735107421877	-460.8445434570314	791.986511230469	-874.0599365234377	-459.5164489746095	791.792907714844	-816.7142333984377	-394.770477294922	583.1550903320314	-1117.790283203125	-315.9082946777344	574.4202270507814	-1152.3583984375	-290.1985168457032	612.2686157226564	-1140.801025390625	-288.1371765136719	524.3682250976564	-1169.534912109375	-173.7869720458985	456.8950805664064	-1208.9072265625	-100.2765350341797	438.8812866210939	-1095.62939453125	-168.3152618408203	295.6456298828126	-1183.44482421875	-248.5232086181641	279.4966735839844	-1218.038452148438	-210.505111694336	260.8015747070313	-1206.006469726563	-236.3589782714844	189.0462188720703	-1168.369750976563	-356.1697387695313	88.92502593994142	-1185.294921875	-293.9273681640626	95.9946746826172	-1108.57080078125	-408.5633850097657	51.85840988159181	-1109.952758789063	-196.0948791503907	52.96055221557619	-1176.623901367188	-208.0214843750001	58.34360504150392	-1224.4482421875	-274.3390197753907	39.3390007019043	-1256.142333984375	-321.5874633789063	551.8006591796876	-554.2056884765626	-257.3946228027344	561.6295776367189	-534.9129638671876	-238.6161041259766	588.6063232421876	-541.1361694335939	-202.9403991699219	498.6532287597657	-519.8006591796876	-154.9448394775391	456.3057250976564	-505.4917907714845	-76.78768157958986	462.1442260742189	-618.3317260742189	-127.1593551635742	352.3334960937501	-497.798065185547	-228.6255645751954	310.0699157714844	-500.3898925781251	-187.2381134033203	288.1968078613282	-497.1575927734376	-184.782211303711	237.0696868896485	-521.9555053710939	-305.0273437500001	89.95352935791017	-538.5319213867189	-237.4916534423829	97.32341003417972	-606.3424072265626	-349.5951843261719	49.3089942932129	-621.5410766601564	-139.5626831054688	52.09776687622072	-533.6145629882814	-158.7412719726563	57.20580291748048	-489.9104003906251	-223.9331359863282	37.22046661376954	-466.4739379882814	
1347	6.73	167.6977996826172	1174.907470703125	-872.2703247070315	-7.15082359313965	1138.11083984375	-922.3877563476565	-5.702599048614503	1135.844360351563	-782.5051879882815	-69.5592498779297	1058.396606445313	-835.5825195312502	-351.5974731445313	875.297302246094	-849.5477294921877	-11.27628803253174	908.101013183594	-852.839782714844	-4.581255435943604	992.4460449218752	-1001.169982910156	-142.3152313232422	994.1879882812502	-1182.73974609375	-149.9540710449219	944.976989746094	-1194.397338867188	-190.0579223632813	971.3317871093752	-1230.948608398438	-238.3951873779297	929.646179199219	-1257.106201171875	-300.8927307128907	977.6738281250002	-1212.186401367188	-376.9562988281251	781.9312744140627	-1082.093017578125	-372.7542419433594	723.2725219726564	-1130.052734375	-336.6944885253907	749.6405029296876	-1036.168579101563	19.33230018615723	963.3647460937502	-691.9556274414064	-135.1164245605469	948.054870605469	-509.3284301757814	-152.6266632080078	902.7280273437502	-504.6223449707032	-192.0662078857422	933.0169677734377	-470.3646240234376	-238.759017944336	911.4654541015627	-455.4046020507814	-284.4725341796876	966.784118652344	-504.9514465332032	-414.1966552734376	784.8933105468752	-630.6026611328126	-406.8201293945314	727.4046020507814	-576.8512573242189	-361.4682617187501	753.8443603515626	-658.4158935546876	-333.9370727539063	654.4768066406251	-973.636413574219	-328.3308410644532	661.3174438476564	-714.7034912109376	-433.2261962890626	812.7400512695315	-847.0987548828127	-460.8288879394532	792.638610839844	-874.152770996094	-459.2564392089845	792.3389282226565	-816.8098754882815	-394.8528747558595	583.8109741210939	-1117.825561523438	-316.4675903320313	574.8277587890626	-1152.032836914063	-290.3739624023438	612.7092285156251	-1140.830688476563	-288.3027954101563	524.7222290039064	-1169.43994140625	-174.3468322753907	457.155487060547	-1208.720947265625	-100.6353302001953	438.9843139648439	-1095.449340820313	-168.4045562744141	295.8060302734376	-1183.353515625	-248.7875518798829	279.5408020019532	-1217.98583984375	-210.7424316406251	260.8781127929688	-1205.9228515625	-236.4584960937501	189.1652984619141	-1168.346801757813	-356.3611450195313	89.0058059692383	-1185.275756835938	-293.9734802246094	96.01397705078128	-1108.580200195313	-408.5591430664064	51.84362792968751	-1110.016723632813	-196.0865325927735	52.95595932006837	-1176.611694335938	-208.4771118164063	58.43027496337892	-1224.52685546875	-274.3970642089844	39.35939025878907	-1256.145141601563	-321.7963256835938	552.4335937500001	-554.3283081054689	-257.7823181152344	561.8793945312501	-534.9736328125001	-238.9046936035157	588.9528808593751	-541.2167968750001	-203.4497833251954	498.8782348632814	-519.9627685546876	-155.338119506836	456.5515441894532	-505.589324951172	-77.18448638916017	462.444549560547	-618.4835815429689	-127.6447296142578	352.5582885742188	-497.8315734863282	-228.8694458007813	310.2342529296876	-500.5042114257814	-187.4314270019532	288.3221435546876	-497.2793579101564	-185.009750366211	237.2180480957032	-521.9883422851564	-305.0690917968751	89.91985321044923	-538.5369873046876	-237.5332336425782	97.32067871093753	-606.3027343750001	-349.6087341308594	49.27192306518556	-621.5434570312501	-139.6263732910157	52.10591888427736	-533.6448974609376	-158.7528076171875	57.20742416381837	-489.9221801757814	-223.9486236572266	37.2012062072754	-466.4739990234376	
1348	6.735	167.4366149902344	1175.969360351563	-872.497985839844	-7.683025360107424	1139.354248046875	-922.4373779296877	-6.178535938262941	1137.097045898438	-782.4875488281252	-69.88635253906251	1059.418701171875	-835.467468261719	-351.8045349121094	876.0675048828127	-849.6536254882815	-11.55627822875977	909.2860107421877	-852.9262695312502	-4.96385669708252	993.5032348632815	-1001.317016601563	-142.7693939208985	994.996276855469	-1182.848266601563	-150.5669097900391	945.7098388671877	-1194.439453125	-190.5681915283203	972.1423339843752	-1230.943603515625	-238.6946411132813	930.3047485351565	-1257.229736328125	-301.3826293945313	978.398620605469	-1212.306884765625	-377.3034973144532	782.5847778320315	-1082.1728515625	-372.9273376464844	723.7644653320314	-1130.107788085938	-337.0382080078126	750.2085571289064	-1036.189575195313	19.00204658508301	964.5012817382815	-692.1433105468751	-135.436508178711	948.8140258789065	-509.4095458984376	-153.0498199462891	903.556091308594	-504.7605590820314	-192.3982391357422	933.706237792969	-470.4476623535157	-238.9897003173829	912.1805419921877	-455.2543945312501	-284.9041442871094	967.4842529296877	-504.925018310547	-414.4357299804689	785.4455566406252	-630.6267089843751	-406.9242248535157	727.9095458984376	-576.8610229492189	-361.5657958984376	754.4868774414064	-658.3391113281251	-334.0728454589844	655.3563232421876	-973.6253662109377	-328.8739318847657	661.5330200195314	-714.7680664062501	-433.2386779785157	813.3164672851565	-847.0682373046877	-460.9715576171876	793.595642089844	-874.1422119140627	-459.3966369628907	793.1658325195315	-816.773132324219	-395.0154113769532	584.4216308593751	-1117.949829101563	-316.5740051269532	575.1598510742189	-1152.04248046875	-290.4485778808594	613.1113281250001	-1140.848510742188	-288.3530273437501	525.0267333984376	-1169.423095703125	-174.6726837158203	457.2890625000001	-1208.506591796875	-101.1340713500977	439.1614685058595	-1095.25341796875	-168.4445495605469	295.9119873046876	-1183.1865234375	-249.016830444336	279.5681457519532	-1217.853881835938	-210.8921203613282	260.9862365722657	-1205.78466796875	-236.4726562500001	189.2406463623047	-1168.337280273438	-356.4478149414063	88.97300720214845	-1185.256591796875	-293.9758605957032	96.00898742675784	-1108.5810546875	-408.6005249023439	51.842098236084	-1110.011474609375	-196.1052246093751	52.98598861694337	-1176.636840820313	-208.548812866211	58.44136428833009	-1224.495849609375	-274.3368530273438	39.33985137939454	-1256.147705078125	-322.1604919433594	552.9205322265626	-554.3139648437501	-258.2156372070313	562.2601928710939	-535.0612182617189	-239.2039337158204	589.2210083007814	-541.2463989257814	-203.8135070800782	498.9960937500001	-520.1399536132814	-155.5685119628907	456.7300720214845	-505.7822570800782	-77.63928222656251	462.7021789550782	-618.5736083984376	-127.9860305786133	352.6587219238282	-497.8745117187501	-229.171371459961	310.2153320312501	-500.579803466797	-187.6634368896485	288.3861389160157	-497.3319396972657	-185.3114624023438	237.3601684570313	-522.0265502929689	-305.0989074707032	89.8827590942383	-538.5473022460939	-237.5719146728516	97.35905456542972	-606.2858886718751	-349.6103210449219	49.25439834594728	-621.5310668945314	-139.660888671875	52.07384109497072	-533.6383056640626	-158.8181610107422	57.22131729125978	-489.911590576172	-223.9474029541016	37.19259262084962	-466.4206542968751	
1349	6.74	166.6728057861328	1177.297973632813	-872.6911621093752	-8.214683532714846	1140.319946289063	-922.6091918945315	-6.747025012969972	1138.272216796875	-782.6405029296877	-70.53408813476564	1060.37939453125	-835.5162353515627	-351.9758300781251	876.8504028320315	-849.7164306640627	-11.81714916229248	910.3867797851565	-852.929626464844	-5.42435121536255	994.5611572265627	-1001.390747070313	-143.3114929199219	995.8388671875002	-1182.806762695313	-151.0150756835938	946.5324707031252	-1194.387939453125	-190.9921417236328	973.0159301757815	-1231.039794921875	-239.2012023925782	931.0294189453127	-1257.20751953125	-301.8555603027344	978.861511230469	-1212.226928710938	-377.6596679687501	783.2407836914065	-1082.252319335938	-373.1711425781251	724.4434204101564	-1130.181640625	-337.2388916015626	750.8176879882814	-1036.268432617188	18.62565231323243	965.5950927734377	-692.2234497070314	-135.6870269775391	949.7864379882815	-509.4089660644532	-153.7227020263672	904.5669555664065	-504.6806640625001	-192.6080474853516	934.5567626953127	-470.6315002441407	-239.1544342041016	912.905944824219	-455.5538940429689	-285.2406311035157	968.165954589844	-505.0453491210939	-414.7003479003907	786.1799316406252	-630.6361694335939	-407.0442504882814	728.5050048828126	-576.9473266601564	-362.1033020019532	754.8265380859376	-658.5931396484376	-334.2154541015626	656.0147705078126	-973.6163330078127	-329.3164367675782	662.3168945312501	-714.6912231445314	-433.6783447265626	814.329284667969	-847.0843505859377	-461.1492004394532	794.4057617187502	-874.1207275390627	-459.8530273437501	794.0405883789065	-816.8020629882815	-395.2608032226564	584.9455566406251	-1117.973510742188	-316.9768066406251	575.8927612304689	-1152.08837890625	-290.6508178710938	613.6270141601564	-1140.806640625	-288.6605529785157	525.4149780273439	-1169.368286132813	-174.4741973876953	457.426239013672	-1208.51806640625	-101.429428100586	439.5049743652345	-1095.01513671875	-168.5879516601563	295.8566589355469	-1183.092529296875	-249.0903778076172	279.5910339355469	-1217.812255859375	-211.1460876464844	261.0382080078126	-1205.642578125	-236.7890777587891	189.2521514892578	-1168.20458984375	-356.4344482421876	88.94780731201173	-1185.290771484375	-294.0868835449219	95.99617767333986	-1108.597290039063	-408.672332763672	51.82434463500978	-1110.03759765625	-196.1134796142579	53.01070022583009	-1176.631225585938	-208.5450897216797	58.46261978149415	-1224.482788085938	-274.3548889160157	39.34614181518555	-1256.12939453125	-322.5260925292969	553.3005371093751	-554.3994140625001	-258.4690551757813	562.5352783203126	-535.1228027343751	-239.482162475586	589.5357055664064	-541.2871093750001	-204.2180328369141	499.2695617675782	-520.1827392578126	-155.8454284667969	456.9129028320314	-506.0339355468751	-78.0119094848633	462.9369506835939	-618.6267089843751	-128.3294067382813	352.7964782714844	-497.8988647460939	-229.4050598144532	310.2472229003907	-500.6154174804689	-187.8117828369141	288.4568786621094	-497.3647766113282	-185.499984741211	237.4137420654297	-522.0946044921876	-305.1316528320313	89.88562011718751	-538.5388183593751	-237.6104431152344	97.32142639160159	-606.3120117187501	-349.6399841308594	49.23949813842775	-621.4593505859376	-139.6782989501953	52.13907623291017	-533.6090087890626	-158.768798828125	57.20198059082033	-489.9255371093751	-223.9578399658204	37.18392181396485	-466.4674072265626	
